HIERARCHY
ROOT hips
{
  OFFSET 4.514983404067499e-9 10.105397940993303 1.318478203070619
  CHANNELS 6 Xposition Yposition Zposition Yrotation Xrotation Zrotation
  JOINT spine
  {
    OFFSET -3.891297943093837e-9 0.5743022203102706 0
    CHANNELS 3 Yrotation Xrotation Zrotation
    JOINT chest
    {
      OFFSET 0 1.2550312016247926 0
      CHANNELS 3 Yrotation Xrotation Zrotation
      JOINT upperChest
      {
        OFFSET 0 1.2059856050120283 0
        CHANNELS 3 Yrotation Xrotation Zrotation
        JOINT neck
        {
          OFFSET 0 1.5290392449770056 0
          CHANNELS 3 Yrotation Xrotation Zrotation
          JOINT head
          {
            OFFSET 0 0.8186276690878121 0
            CHANNELS 3 Yrotation Xrotation Zrotation
            JOINT leftEye
            {
              OFFSET 0.4540883942785781 -0.2684596961258452 0.6133497327236779
              CHANNELS 3 Yrotation Xrotation Zrotation
              End Site
              {
                OFFSET 0.4540883942785781 -0.2684596961258452 0.6133497327236779
              }
            }
            JOINT rightEye
            {
              OFFSET -0.4540889229417456 -0.26846010916843954 0.6133525398671689
              CHANNELS 3 Yrotation Xrotation Zrotation
              End Site
              {
                OFFSET -0.4540889229417456 -0.26846010916843954 0.6133525398671689
              }
            }
          }
        }
        JOINT leftShoulder
        {
          OFFSET 1.1700010731725468 -0.4176065950681176 0
          CHANNELS 3 Yrotation Xrotation Zrotation
          JOINT leftUpperArm
          {
            OFFSET 1.1803911524554955 0 0
            CHANNELS 3 Yrotation Xrotation Zrotation
            JOINT leftLowerArm
            {
              OFFSET 2.4406171707858904 0 0
              CHANNELS 3 Yrotation Xrotation Zrotation
              JOINT leftHand
              {
                OFFSET 2.3832177068873874 0 0
                CHANNELS 3 Yrotation Xrotation Zrotation
                JOINT leftIndexProximal
                {
                  OFFSET 0.7310175006235151 0.08192774217833776 0.20404791572985242
                  CHANNELS 3 Yrotation Xrotation Zrotation
                  JOINT leftIndexIntermediate
                  {
                    OFFSET 0.3688845439429529 -0.010662034455094949 -0.014226011560394963
                    CHANNELS 3 Yrotation Xrotation Zrotation
                    JOINT leftIndexDistal
                    {
                      OFFSET 0.2271119941018298 -0.007897656478952575 -0.007580683836364496
                      CHANNELS 3 Yrotation Xrotation Zrotation
                      End Site
                      {
                        OFFSET 0.2271119941018298 -0.007897656478952575 -0.007580683836364496
                      }
                    }
                  }
                }
                JOINT leftLittleProximal
                {
                  OFFSET 0.678269929308182 0.08192620621401336 -0.323876516389586
                  CHANNELS 3 Yrotation Xrotation Zrotation
                  JOINT leftLittleIntermediate
                  {
                    OFFSET 0.34904545821382604 -0.0000017106393073174075 8.629360392919949e-9
                    CHANNELS 3 Yrotation Xrotation Zrotation
                    JOINT leftLittleDistal
                    {
                      OFFSET 0.2011060672849896 0.0031247840072243793 0.0038660318003989197
                      CHANNELS 3 Yrotation Xrotation Zrotation
                      End Site
                      {
                        OFFSET 0.2011060672849896 0.0031247840072243793 0.0038660318003989197
                      }
                    }
                  }
                }
                JOINT leftMiddleProximal
                {
                  OFFSET 0.7368181082522638 0.0819260272939426 0.02272335773438093
                  CHANNELS 3 Yrotation Xrotation Zrotation
                  JOINT leftMiddleIntermediate
                  {
                    OFFSET 0.41136739116025356 -0.0000015892429323649537 5.27860346960507e-8
                    CHANNELS 3 Yrotation Xrotation Zrotation
                    JOINT leftMiddleDistal
                    {
                      OFFSET 0.25378150303820757 -0.0000015332469289752737 1.3442958385345705e-8
                      CHANNELS 3 Yrotation Xrotation Zrotation
                      End Site
                      {
                        OFFSET 0.25378150303820757 -0.0000015332469289752737 1.3442958385345705e-8
                      }
                    }
                  }
                }
                JOINT leftRingProximal
                {
                  OFFSET 0.7284256823094712 0.08192611199801392 -0.1508405069143483
                  CHANNELS 3 Yrotation Xrotation Zrotation
                  JOINT leftRingIntermediate
                  {
                    OFFSET 0.381593741461262 -0.0000016975471202052006 6.592486757883709e-8
                    CHANNELS 3 Yrotation Xrotation Zrotation
                    JOINT leftRingDistal
                    {
                      OFFSET 0.22014536669820362 -0.0027420652959939673 -0.005037497035641991
                      CHANNELS 3 Yrotation Xrotation Zrotation
                      End Site
                      {
                        OFFSET 0.22014536669820362 -0.0027420652959939673 -0.005037497035641991
                      }
                    }
                  }
                }
                JOINT leftThumbProximal
                {
                  OFFSET 0.10842212958334652 -0.16573713992498873 -0.07779936144556289
                  CHANNELS 3 Yrotation Xrotation Zrotation
                  JOINT leftThumbIntermediate
                  {
                    OFFSET 0.40720553822379024 -0.01751267955631075 0.31852684427382305
                    CHANNELS 3 Yrotation Xrotation Zrotation
                    JOINT leftThumbDistal
                    {
                      OFFSET 0.23412859218032667 -0.01859690713588802 0.2146635043319005
                      CHANNELS 3 Yrotation Xrotation Zrotation
                      End Site
                      {
                        OFFSET 0.23412859218032667 -0.01859690713588802 0.2146635043319005
                      }
                    }
                  }
                }
              }
            }
          }
        }
        JOINT rightShoulder
        {
          OFFSET -1.1700037144859516 -0.41760703856471126 0
          CHANNELS 3 Yrotation Xrotation Zrotation
          JOINT rightUpperArm
          {
            OFFSET -1.1803910289368023 0 0
            CHANNELS 3 Yrotation Xrotation Zrotation
            JOINT rightLowerArm
            {
              OFFSET -2.440617418222133 0 0
              CHANNELS 3 Yrotation Xrotation Zrotation
              JOINT rightHand
              {
                OFFSET -2.3832181162662343 0 0
                CHANNELS 3 Yrotation Xrotation Zrotation
                JOINT rightIndexProximal
                {
                  OFFSET -0.7310168852843362 0.08192787643494381 0.20404785424302163
                  CHANNELS 3 Yrotation Xrotation Zrotation
                  JOINT rightIndexIntermediate
                  {
                    OFFSET -0.3688846010723953 -0.01066191355993129 -0.014226020535245201
                    CHANNELS 3 Yrotation Xrotation Zrotation
                    JOINT rightIndexDistal
                    {
                      OFFSET -0.22711216276130997 -0.007898902439410271 -0.007580718044857868
                      CHANNELS 3 Yrotation Xrotation Zrotation
                      End Site
                      {
                        OFFSET -0.22711216276130997 -0.007898902439410271 -0.007580718044857868
                      }
                    }
                  }
                }
                JOINT rightLittleProximal
                {
                  OFFSET -0.6782685897119165 0.08192501740206293 -0.3238766118101876
                  CHANNELS 3 Yrotation Xrotation Zrotation
                  JOINT rightLittleIntermediate
                  {
                    OFFSET -0.34904682243945895 -2.664019085329983e-7 3.792712677253007e-8
                    CHANNELS 3 Yrotation Xrotation Zrotation
                    JOINT rightLittleDistal
                    {
                      OFFSET -0.20110609302945537 0.0031260842677420797 0.0038661724369087186
                      CHANNELS 3 Yrotation Xrotation Zrotation
                      End Site
                      {
                        OFFSET -0.20110609302945537 0.0031260842677420797 0.0038661724369087186
                      }
                    }
                  }
                }
                JOINT rightMiddleProximal
                {
                  OFFSET -0.7368168209984411 0.08192485183145659 0.022723294831187846
                  CHANNELS 3 Yrotation Xrotation Zrotation
                  JOINT rightMiddleIntermediate
                  {
                    OFFSET -0.4113687575187084 -9.03141548214137e-8 4.759541079313312e-8
                    CHANNELS 3 Yrotation Xrotation Zrotation
                    JOINT rightMiddleDistal
                    {
                      OFFSET -0.2537822083525749 -9.554208624251714e-8 -1.6364827826187422e-9
                      CHANNELS 3 Yrotation Xrotation Zrotation
                      End Site
                      {
                        OFFSET -0.2537822083525749 -9.554208624251714e-8 -1.6364827826187422e-9
                      }
                    }
                  }
                }
                JOINT rightRingProximal
                {
                  OFFSET -0.7284243957721679 0.08192492753028224 -0.15084062217729294
                  CHANNELS 3 Yrotation Xrotation Zrotation
                  JOINT rightRingIntermediate
                  {
                    OFFSET -0.381595106800805 -2.5662436442530634e-7 2.929475539925619e-8
                    CHANNELS 3 Yrotation Xrotation Zrotation
                    JOINT rightRingDistal
                    {
                      OFFSET -0.22014544912608125 -0.002738002524970362 -0.0050375115645966
                      CHANNELS 3 Yrotation Xrotation Zrotation
                      End Site
                      {
                        OFFSET -0.22014544912608125 -0.002738002524970362 -0.0050375115645966
                      }
                    }
                  }
                }
                JOINT rightThumbProximal
                {
                  OFFSET -0.10842026863657162 -0.16573778435706465 -0.07779917642461898
                  CHANNELS 3 Yrotation Xrotation Zrotation
                  JOINT rightThumbIntermediate
                  {
                    OFFSET -0.40720600760521597 -0.017512298079938038 0.3185267362029824
                    CHANNELS 3 Yrotation Xrotation Zrotation
                    JOINT rightThumbDistal
                    {
                      OFFSET -0.2341289751103648 -0.018594162598156494 0.21466399510514025
                      CHANNELS 3 Yrotation Xrotation Zrotation
                      End Site
                      {
                        OFFSET -0.2341289751103648 -0.018594162598156494 0.21466399510514025
                      }
                    }
                  }
                }
              }
            }
          }
        }
      }
    }
  }
  JOINT leftUpperLeg
  {
    OFFSET -0.8565189721517369 0.4427277044191169 0
    CHANNELS 3 Yrotation Xrotation Zrotation
    JOINT leftLowerLeg
    {
      OFFSET 0 -3.918486704769693 0
      CHANNELS 3 Yrotation Xrotation Zrotation
      JOINT leftFoot
      {
        OFFSET 6.174701361744139e-7 -0.055233446196002234 4.612027801972084
        CHANNELS 3 Yrotation Xrotation Zrotation
        JOINT leftToes
        {
          OFFSET -3.4372540951010944e-7 -0.705284859504459 1.2256624571888697
          CHANNELS 3 Yrotation Xrotation Zrotation
          End Site
          {
            OFFSET -3.4372540951010944e-7 -0.705284859504459 1.2256624571888697
          }
        }
      }
    }
  }
  JOINT rightUpperLeg
  {
    OFFSET 0.8565189732197466 0.44272769569168136 0
    CHANNELS 3 Yrotation Xrotation Zrotation
    JOINT rightLowerLeg
    {
      OFFSET 0 -3.918486692649319 0
      CHANNELS 3 Yrotation Xrotation Zrotation
      JOINT rightFoot
      {
        OFFSET 6.995136552362391e-7 -0.05523244834012664 4.612028499942008
        CHANNELS 3 Yrotation Xrotation Zrotation
        JOINT rightToes
        {
          OFFSET -4.2566694985479714e-7 -0.7052846587611067 1.22566236096697
          CHANNELS 3 Yrotation Xrotation Zrotation
          End Site
          {
            OFFSET -4.2566694985479714e-7 -0.7052846587611067 1.22566236096697
          }
        }
      }
    }
  }
}
MOTION
Frames: 4
Frame Time: 0.03333333333333333
-0.028911815956234932 -0.06895041596888873 0.04783709719777107 -7.828411384807803 5.424426933320519 0.5920754630397536 0.35255937086174116 -0.7089446081519462 0.049486084913054874 1.4062352891962207 -2.8449689744398667 0.6620926948714102 0 0 0 0.4225247562339772 -0.06003546613960573 -0.005993862713569778 1.8147070828276293 15.069905963058046 0.44867905173667916 0 0 0 0 0 0 -0.018595485006865087 -1.5623876583460408 -8.738040993182127 -9.25296531202898 16.030031787815137 -66.0009598364117 -26.255082750372434 -1.9867383531207112 0.778049349490579 6.75780968841896 8.991653088111548 -1.322047973614001 3.3211096843688437 0.7288165800617357 -8.625159512499755 3.489852394645547 1.4974282891868789 -16.838341017562247 8.148288482878835e-7 -1.5337981956980147e-7 -0.0000015517772606458285 8.147230382732886 -6.573628650737543 -23.114152730137132 -5.817493400533757 -0.6601687722150642 -22.445974383274812 0.000010842474879785569 0.000020794444930525973 -0.000013159829666921278 4.261445108508134 0.8722796946053016 -16.088342716686096 -0.5075217656053623 -0.09892924280629828 -10.50344591021494 1.139979627027678e-10 6.3611093629270335e-15 -1.43444452663829e-12 6.5859859447202656 -0.0653066277660797 -23.49663384880942 -1.8099894188645766 -0.14542567580654187 -13.089445226060706 -0.00000412555579597696 -0.000009862134494984367 -7.112917174090152e-7 4.390952743552568 -0.9712070942486067 5.436604137165994 6.3980866992510785 2.9568730702444306 2.294692794668484 0.0000029659611813277985 0.0000036354096231252345 3.6447062572369624e-7 0.11612542711295842 -1.887580109562099 7.680137704831423 20.59971496164643 12.276860881483513 63.38908822986048 17.509997601340967 -1.1976318539629234 -0.3925495795687438 5.765363059384706 21.80598852158148 4.1980456701342055 -2.8043629070952485 1.9990668310497606 8.433207266848019 -0.9928733370009675 0.5646084761675789 31.086381355557975 -0.0000024018115923695183 -9.648332215075601e-7 -0.0000022436391985057194 -7.219205347438977 -5.810910578067944 36.60237548079905 10.37666004379827 -3.503057618394742 44.46773379320875 1.6628260911929426e-9 -3.1805543023118527e-15 -2.179830267765673e-11 -1.7626956620883054 -1.014774770433545 16.99025518564724 1.4875705203479546 -0.417805253698612 26.552602013330876 1.215836204053751e-9 -3.180554491887685e-15 -1.6036856771618462e-11 -1.6741377979615166 -1.496484333705697 26.09406706144244 4.012202817532921 -1.0466739275779995 30.81726176113493 0.0000037456043928410843 3.109729835372313e-7 0.0000036715802140735772 -3.6345636160299244 -2.003294094671004 -5.278841237338189 -10.72141986901644 5.556943863405562 -2.926487879427557 0.000004729118614992434 0.0000031691022419442544 -0.000002131869519889351 9.529919857779413 -6.484923787837047 -0.44197392311756073 0.02596674780919692 7.30461146205761 -0.2094981171473104 9.095253996874126 -5.852257663027255 -1.9126396124331086 -0.026220252182572706 -0.30535532431380485 0.06382978577340134 3.2457027510551066 -6.736551624521739 -0.234029045525751 0.03316324470678826 9.081533814735844 0.36935263304472526 1.594049295922002 -7.696743646426969 -1.1977088831675258 -0.10624193353026111 -0.012203778893309643 0.26332263487885005
-0.029095152392983437 -0.06892466676234577 0.049375344067811966 -7.840416535462755 5.425257533298021 0.603515997421441 0.3512171406175023 -0.7054303682236107 0.04816498897498384 1.4009396573528017 -2.8309434818382484 0.6640037934678173 0 0 0 0.4212463692290236 -0.06939211090953898 -0.01787650596981973 1.8326291059904165 15.07438173554837 0.4379270071090484 0 0 0 0 0 0 -0.007632838990379502 -1.5577375640990343 -8.708100749147249 -9.306967780977823 15.985722279951643 -66.02460758066903 -26.205590644770417 -1.9826339354749216 0.7756518953323097 6.722252041590023 8.998611543648039 -1.3654275366028388 3.3211256670325593 0.7288199954326298 -8.625153603195546 3.4898413175524814 1.4974362960491792 -16.83835771081939 8.148288482878835e-7 -1.5337981956980147e-7 -0.0000015517772606458285 8.147236337981784 -6.57362349419432 -23.114168307451525 -5.817479038713562 -0.6601597536322905 -22.445960727235466 0.000010842474879785569 0.000020794444930525973 -0.000013159829666921278 4.261430379008206 0.8722834836649547 -16.08835937744279 -0.5075058646714823 -0.09893700015185163 -10.503435214032237 1.139979627027678e-10 6.3611093629270335e-15 -1.43444452663829e-12 6.585977039250057 -0.06530345279327038 -23.496669048464586 -1.8099828053986706 -0.14543474718075508 -13.089440236500728 -0.00000412555579597696 -0.000009862134494984367 -7.112917174090152e-7 4.390952317857558 -0.9712052797189323 5.4365549353855895 6.398062104946698 2.956866017221798 2.294679767717459 0.0000029659611813277985 0.0000036354096231252345 3.6447062572369624e-7 0.22679696180096226 -1.9284989822835865 8.014725947903763 20.34757242171887 12.476780703898488 63.07665925219571 18.026290446004424 -1.2461757637354922 -0.41191232421344504 5.524178989444355 21.75894727305815 4.1693585549129555 -2.8043704193412062 1.9990401343758106 8.433200850302248 -0.9933919985453504 0.5664877768735527 31.151352389629526 -0.0000024018115923695183 -9.648332215075601e-7 -0.0000022436391985057194 -7.219201521914298 -5.810923021728359 36.60235351474731 10.377361938193872 -3.5043532938395474 44.47482935849668 1.6628260911929426e-9 -3.1805543023118527e-15 -2.179830267765673e-11 -1.762692994889865 -1.0147759445564566 16.99027351457038 1.4882557795989622 -0.41802964205405274 26.56252804873856 1.215836204053751e-9 -3.180554491887685e-15 -1.6036856771618462e-11 -1.674136090560761 -1.49648518777064 26.09404871592911 4.011802200258093 -1.046433443458461 30.81356079020071 0.0000037456043928410843 3.109729835372313e-7 0.0000036715802140735772 -3.6345627634524122 -2.0033178013789503 -5.278820395861479 -10.721417545032102 5.556935285356187 -2.926515254395984 0.000004729118614992434 0.0000031691022419442544 -0.000002131869519889351 9.522027833015525 -6.447349238449038 -0.4534361458670995 0.02635235882325928 7.254215973695032 -0.20701905912639573 9.115923790024311 -5.837929417501778 -1.9142214826451105 -0.026240828613540327 -0.3125603981904334 0.06384576940614851 3.2597961775294992 -6.731006962605496 -0.24664944650645806 0.03356916294220815 9.088449911175909 0.36989571312440417 1.593166359024551 -7.709182676819475 -1.1985756207805913 -0.10624692943157026 -0.012203767220622807 0.26332263487885005
-0.029309168457984924 -0.06900954377650592 0.05255747213959694 -7.870363393662669 5.432577754278775 0.6119495499078924 0.3491553534598744 -0.6998963782635421 0.0471261425496328 1.392700153061713 -2.808820818532506 0.6669408408685179 0 0 0 0.4178030841363354 -0.0853924506685015 -0.027693101197777938 1.8376689327043214 15.102517067673695 0.44645174412094396 0 0 0 0 0 0 0.012495849532777596 -1.5495523085502372 -8.653627902077945 -9.416256241116047 15.913545597637556 -66.06144322356687 -26.140151804754957 -1.9772517347919065 0.7724401388005586 6.681040809812425 9.011960051302092 -1.398369672566053 3.321106061631663 0.7288076680783209 -8.625178596800096 3.489857509534817 1.4974636261393848 -16.838336112874202 8.148288482878835e-7 -1.5337981956980147e-7 -0.0000015517772606458285 8.147225278233687 -6.573624353618187 -23.114154311003627 -5.817481162295892 -0.6601504148631634 -22.445985157015137 0.000010842474879785569 0.000020794444930525973 -0.000013159829666921278 4.261425695692504 0.872274037699348 -16.088361018304962 -0.5075071986424483 -0.09893603965506761 -10.503461020656989 1.139979627027678e-10 6.3611093629270335e-15 -1.43444452663829e-12 6.585973222619871 -0.06530301923605902 -23.49663384880942 -1.8099789653216711 -0.14544019000528477 -13.0894518206395 -0.00000412555579597696 -0.000009862134494984367 -7.112917174090152e-7 4.390954446332607 -0.9712168073192334 5.436590961310637 6.398073955443543 2.9568938018566713 2.2946966386867738 0.0000029659611813277985 0.0000036354096231252345 3.6447062572369624e-7 0.42352612593181144 -1.9694752213732352 8.421336980038186 19.928505585063373 12.701715344051516 62.68674470451148 18.700657665185688 -1.3092308891793876 -0.43796048756766626 5.298345742561639 21.642418172081218 4.178730536535451 -2.804381252410789 1.9990514537655126 8.433205576734954 -0.9931962790958772 0.5658839693423916 31.12921116334143 -0.0000024018115923695183 -9.648332215075601e-7 -0.0000022436391985057194 -7.21921684676067 -5.810910578067944 36.602370678229576 10.37803001293247 -3.5055313571274724 44.48117008859006 1.6628260911929426e-9 -3.1805543023118527e-15 -2.179830267765673e-11 -1.7626985426626118 -1.0147596135741805 16.990275147846898 1.4897466429037294 -0.41856171729778374 26.58411668199137 1.215836204053751e-9 -3.180554491887685e-15 -1.6036856771618462e-11 -1.6741479356534408 -1.4964700281179522 26.094042611223927 4.01193793121144 -1.0465222507299294 30.81495319593826 0.0000037456043928410843 3.109729835372313e-7 0.0000036715802140735772 -3.63457001036122 -2.0032832023999 -5.278841237338189 -10.721418183355354 5.556949010235246 -2.9264976923278287 0.000004729118614992434 0.0000031691022419442544 -0.000002131869519889351 9.50790366119468 -6.406260578553824 -0.4618829224188879 0.026695234756518797 7.207025725219532 -0.20464651184797306 9.160790415059447 -5.8363618721886334 -1.920900979574727 -0.026275558241947425 -0.32544652354617865 0.06387852668201642 3.2790171208787022 -6.719712795152126 -0.2574788578053452 0.033906760296983474 9.088288225687 0.37020803231274285 1.6050471834235083 -7.726585699014265 -1.2007243641359808 -0.10624622240147853 -0.012200550561636542 0.26332271491928805
-0.029059484601020813 -0.0692508233785567 0.05604619160294533 -7.921089803353373 5.453422711603147 0.6028411587440757 0.3499091526247229 -0.6978510647030379 0.04540988442570567 1.3959107841990535 -2.8005955287028215 0.6591411933718432 0 0 0 0.3916544888479157 -0.10494594195905822 -0.03405598909749845 1.666058334154797 15.229550157878498 0.5727691448575146 0 0 0 0 0 0 0.032316318575100055 -1.5415575450805676 -8.601781734363747 -9.511198116026 15.864484808767306 -66.08675828246679 -26.134488298359322 -1.976855134289825 0.7722505420182275 6.676654001708266 9.03753901017862 -1.3307859231469883 3.321124388419481 0.7288084151907024 -8.625160356686056 3.4898457930804336 1.4974232715531854 -16.83836425040272 8.148288482878835e-7 -1.5337981956980147e-7 -0.0000015517772606458285 8.147249586410823 -6.573620056498866 -23.1141236190744 -5.817484056771229 -0.6601692524946207 -22.44597596156303 0.000010842474879785569 0.000020794444930525973 -0.000013159829666921278 4.261435488079818 0.872239242391216 -16.088385883373043 -0.5075185640750571 -0.09890362955874038 -10.503458502250082 1.139979627027678e-10 6.3611093629270335e-15 -1.43444452663829e-12 6.585972798549847 -0.06531325785635865 -23.49667354197737 -1.8099719251804625 -0.145442377807302 -13.089449325859515 -0.00000412555579597696 -0.000009862134494984367 -7.112917174090152e-7 4.390939972702034 -0.9712339919827185 5.4365905362830365 6.398109169588245 2.9568970077761243 2.2946765643688094 0.0000029659611813277985 0.0000036354096231252345 3.6447062572369624e-7 0.5627790349452652 -1.9308697620541966 8.32586117019268 19.691015603827285 12.591164136620455 62.76219322326761 18.693821826399795 -1.308580677610307 -0.4376332859542205 5.522366639757651 21.519630241870615 4.265580363430801 -2.804373619105354 1.9990375714951347 8.433204731678417 -0.9930540693392627 0.5652801618740786 31.108916717904727 -0.0000024018115923695183 -9.648332215075601e-7 -0.0000022436391985057194 -7.219212169856258 -5.81094876723354 36.60237752759475 10.377921817307918 -3.505352156263002 44.480279843347624 1.6628260911929426e-9 -3.1805543023118527e-15 -2.179830267765673e-11 -1.7627069710096062 -1.0147952642153344 16.990289212137984 1.4908741612068082 -0.4189624946877819 26.600646842207567 1.215836204053751e-9 -3.180554491887685e-15 -1.6036856771618462e-11 -1.674150816892179 -1.4964802768972225 26.0940502499549 4.008553447733082 -1.0442593739232962 30.783268266537387 0.0000037456043928410843 3.109729835372313e-7 0.0000036715802140735772 -3.6345845041784868 -2.003303491924563 -5.278844640028131 -10.721395835946149 5.556938716575922 -2.926481025937687 0.000004729118614992434 0.0000031691022419442544 -0.000002131869519889351 9.52963867984921 -6.405669921290217 -0.4570006576941169 0.026457988571795415 7.214672839245552 -0.2050620364157852 9.190018093512126 -5.8646392965704175 -1.9295412139312136 -0.026277311043061632 -0.3240011149102883 0.06387557083449626 3.2873520075346594 -6.716268932244876 -0.2535809307972173 0.03353787163709229 9.072738226882137 0.36953711089629115 1.6475007391719327 -7.734859687875099 -1.2028343540628554 -0.1062446682692957 -0.012197338071467043 0.26332234139724436
